# xmcd
#
# Track frame offsets:
#	150
#	13103
#	28296
#	45060
#	57682
#	72577
#	87664
#	102808
#	117362
#	131043
#	146093
#	162588
#
# Disc length: 2419 seconds
# Revision: 0
# Processed by: cddbd v1.5.2PL0 Copyright (c) Steve Scherf et al.
# Submitted via: dBpowerAMP V12.0
#
DISCID=b409710c
DTITLE=The Fantastic Four - The Fantastic Four
DYEAR=2008
DGENRE=R&B
TTITLE0=Get Ready
TTITLE1=Everlasting Love
TTITLE2=He Aint Heavy He's My Brother
TTITLE3=I Cant Sleep Myself 
TTITLE4=My Girl
TTITLE5=Build Me Up Buttercup
TTITLE6=What Becomes Of The Brokenhearted
TTITLE7=You Are The Best
TTITLE8=Higher And Higher
TTITLE9=Cant Take My Eyes Of You
TTITLE10=Who Loves You
TTITLE11=Sweetest Angel
EXTD=
EXTT0=
EXTT1=
EXTT2=
EXTT3=
EXTT4=
EXTT5=
EXTT6=
EXTT7=
EXTT8=
EXTT9=
EXTT10=
EXTT11=
PLAYORDER=
